<mxfile host="Electron" modified="2024-02-27T11:34:27.946Z" agent="Mozilla/5.0 (Windows NT 10.0; Win64; x64) AppleWebKit/537.36 (KHTML, like Gecko) draw.io/23.1.5 Chrome/120.0.6099.109 Electron/28.1.0 Safari/537.36" etag="555tXCt9sh-9gXPhDQlU" version="23.1.5" type="device">
  <diagram name="Page-1" id="E4MS3hRZulyTGoS9u9fE">
    <mxGraphModel dx="1036" dy="614" grid="1" gridSize="10" guides="1" tooltips="1" connect="1" arrows="1" fold="1" page="1" pageScale="1" pageWidth="850" pageHeight="1100" math="0" shadow="0">
      <root>
        <mxCell id="0" />
        <mxCell id="1" parent="0" />
        <mxCell id="1ZsHXfUt3pOsQtf5Unxh-1" value="" style="rounded=0;whiteSpace=wrap;html=1;" vertex="1" parent="1">
          <mxGeometry x="40" y="40" width="760" height="470" as="geometry" />
        </mxCell>
        <mxCell id="1ZsHXfUt3pOsQtf5Unxh-16" value="Username" style="text;html=1;align=center;verticalAlign=middle;whiteSpace=wrap;rounded=0;" vertex="1" parent="1">
          <mxGeometry x="690" y="45" width="100" height="30" as="geometry" />
        </mxCell>
        <mxCell id="1ZsHXfUt3pOsQtf5Unxh-17" value="Max pontszám: X%" style="text;html=1;align=center;verticalAlign=middle;whiteSpace=wrap;rounded=0;" vertex="1" parent="1">
          <mxGeometry x="570" y="45" width="120" height="30" as="geometry" />
        </mxCell>
        <mxCell id="1ZsHXfUt3pOsQtf5Unxh-18" value="Kép" style="rounded=0;whiteSpace=wrap;html=1;" vertex="1" parent="1">
          <mxGeometry x="230" y="120" width="390" height="90" as="geometry" />
        </mxCell>
        <mxCell id="1ZsHXfUt3pOsQtf5Unxh-27" value="Eredmény: X%" style="text;html=1;align=center;verticalAlign=middle;whiteSpace=wrap;rounded=0;fontSize=20;" vertex="1" parent="1">
          <mxGeometry x="330" y="230" width="190" height="30" as="geometry" />
        </mxCell>
        <mxCell id="1ZsHXfUt3pOsQtf5Unxh-28" value="Sikeres/Sikertelen" style="text;html=1;align=center;verticalAlign=middle;whiteSpace=wrap;rounded=0;fontSize=14;" vertex="1" parent="1">
          <mxGeometry x="365" y="300" width="120" height="30" as="geometry" />
        </mxCell>
        <mxCell id="1ZsHXfUt3pOsQtf5Unxh-29" value="Kilépés" style="rounded=0;whiteSpace=wrap;html=1;fontSize=16;" vertex="1" parent="1">
          <mxGeometry x="250" y="370" width="150" height="50" as="geometry" />
        </mxCell>
        <mxCell id="1ZsHXfUt3pOsQtf5Unxh-30" value="Újra próbálom" style="rounded=0;whiteSpace=wrap;html=1;fontSize=16;" vertex="1" parent="1">
          <mxGeometry x="450" y="370" width="150" height="50" as="geometry" />
        </mxCell>
        <mxCell id="1ZsHXfUt3pOsQtf5Unxh-31" value="Helyes/Összes" style="text;html=1;align=center;verticalAlign=middle;whiteSpace=wrap;rounded=0;" vertex="1" parent="1">
          <mxGeometry x="690" y="150" width="60" height="30" as="geometry" />
        </mxCell>
      </root>
    </mxGraphModel>
  </diagram>
</mxfile>
